<?xml version="1.0" encoding="utf-8"?>
<!-- Svg Vector Icons : http://www.onlinewebfonts.com/icon -->
<!DOCTYPE svg PUBLIC "-//W3C//DTD SVG 1.1//EN" "http://www.w3.org/Graphics/SVG/1.1/DTD/svg11.dtd">
<svg version="1.1" xmlns="http://www.w3.org/2000/svg" xmlns:xlink="http://www.w3.org/1999/xlink" x="0px" y="0px" viewBox="0 0 1000 1000" enable-background="new 0 0 1000 1000" xml:space="preserve">
<metadata> Svg Vector Icons : http://www.onlinewebfonts.com/icon </metadata>
<g><g transform="translate(0.000000,512.000000) scale(0.100000,-0.100000)"><path d="M3250.2,4985.7c-94-49.9-184.2-157.3-207.2-243.7c-30.7-119-257.1-1579-245.6-1590.5c3.8-5.8,63.3,28.8,130.5,74.8c389.5,270.5,861.5,470.1,1341.1,567.9c968.9,197.6,1968.5-5.8,2812.7-575.6c119-80.6,134.3-86.3,128.6-49.9c-3.8,23-63.3,389.5-130.5,815.4c-136.2,848-145.8,880.6-284,976.6l-76.7,53.7l-1699.9,3.8C3378.7,5022.2,3317.3,5022.2,3250.2,4985.7z"/><path d="M4585.5,3554.5c-564.1-84.4-1045.6-264.8-1477.3-554.5c-404.8-272.4-692.6-560.2-961.2-959.3C1245.2,688,1408.3-1115.4,2540.3-2291.6c249.4-259,587.1-506.5,922.9-675.4c1293.1-648.5,2835.7-420.2,3887.1,571.7c1227.9,1160.8,1437.1,3033.3,496.9,4445.4c-495,742.5-1274,1266.3-2168,1458.1c-157.3,34.5-270.5,44.1-614,48C4833,3560.2,4618.2,3558.3,4585.5,3554.5z M5468.1,2748.6c347.3-61.4,708-209.1,1026.5-420.2c182.3-120.9,556.4-493.1,685-683c727.1-1064.8,610.1-2465.4-282-3382.5c-387.6-399.1-830.8-644.7-1377.6-763.6c-268.6-59.5-757.9-59.5-1034.2,0c-516.1,111.3-938.2,331.9-1306.6,683c-385.6,368.4-631.2,796.2-763.6,1323.8c-65.2,259-84.4,754-38.4,1028.4C2500,1284.7,2914.4,1933.2,3538,2347.6c368.4,245.6,752.1,379.9,1249,439.4C4907.9,2802.4,5291.6,2779.3,5468.1,2748.6z"/><path d="M4846.5,1729.9c-36.5-19.2-82.5-57.6-103.6-84.4c-34.5-48-36.5-92.1-38.4-901.7c-1.9-767.4,1.9-857.6,30.7-913.3c63.3-118.9,72.9-120.9,838.4-120.9c608.2,0,700.3,3.8,748.3,30.7c107.4,65.2,147.7,214.9,86.3,333.8c-57.6,109.4-88.3,115.1-681.1,115.1h-537.2v683c0,583.3-3.8,692.6-30.7,746.3C5101.7,1739.4,4961.6,1789.3,4846.5,1729.9z"/><path d="M7051-2999.5c-90.2-61.4-274.4-166.9-412.5-236c-1034.1-516.1-2219.8-519.9-3261.7-9.6c-126.6,61.4-307,163.1-402.9,226.4c-94,63.3-174.6,107.5-178.4,97.9c-11.5-28.8,228.3-1517.6,257.1-1602c32.6-92.1,126.6-195.7,213-230.2c49.9-21.1,372.2-26.9,1736.3-26.9c1667.3,0,1673.1,0,1757.5,40.3c94,46.1,190,165,205.3,255.2c132.4,830.8,255.2,1594.4,253.3,1596.3C7216-2888.3,7141.2-2936.2,7051-2999.5z"/></g></g>
</svg>